<svg height="512pt" viewBox="-31 0 512 512" width="512pt" xmlns="http://www.w3.org/2000/svg"><path fill="rgba(6, 214, 160, 1)" d="m377.699219 18.675781c-41.203125-12.042969-95.429688-18.675781-152.699219-18.675781s-111.496094 6.632812-152.699219 18.675781c-30.085937 8.792969-72.300781 26.007813-72.300781 57.324219v360c0 31.324219 42.242188 48.539062 72.300781 57.324219 41.203125 12.042969 95.429688 18.675781 152.699219 18.675781s111.496094-6.632812 152.699219-18.675781c30.085937-8.792969 72.300781-26.007813 72.300781-57.324219v-360c0-31.304688-42.1875-48.523438-72.300781-57.324219zm-152.699219 11.324219c54.496094 0 105.738281 6.203125 144.285156 17.472656 41.398438 12.097656 50.714844 24.972656 50.714844 28.527344 0 3.511719-9.300781 16.195312-50.628906 28.003906-38.359375 10.960938-89.632813 16.996094-144.371094 16.996094-125.894531 0-195-30.761719-195-45 0-13.851562 67.695312-46 195-46zm144.285156 434.527344c-38.546875 11.269531-89.789062 17.472656-144.285156 17.472656-126.601562 0-195-31.976562-195-46v-20.019531c34.28125 19.546875 92.914062 30.105469 149.066406 33.609375l1.867188-29.941406c-44.722656-2.789063-85.160156-9.867188-113.855469-19.929688-30.265625-10.613281-37.078125-20.9375-37.078125-23.71875v-19.921875c48.792969 27.5625 138.601562 34.921875 195 34.921875 57.195312 0 146.554688-7.554688 195-34.921875v79.921875c0 3.554688-9.316406 16.429688-50.714844 28.527344zm-144.285156-103.527344c-125.894531 0-195-30.761719-195-45v-20.019531c34.28125 19.546875 92.914062 30.105469 149.066406 33.609375l1.867188-29.941406c-104.066406-6.492188-150.933594-32.890626-150.933594-43.648438v-19.921875c48.8125 27.570313 138.648438 34.921875 195 34.921875 56.226562 0 146.195312-7.351562 195-34.921875v79.921875c0 13.628906-66.902344 45-195 45zm0-120c-125.894531 0-195-30.761719-195-45v-20.019531c34.28125 19.546875 92.914062 30.105469 149.066406 33.609375l1.867188-29.941406c-104.066406-6.492188-150.933594-32.890626-150.933594-43.648438v-19.921875c48.8125 27.570313 138.648438 34.921875 195 34.921875 57.445312 0 111.644531-6.445312 152.613281-18.152344 17.171875-4.90625 31.296875-10.503906 42.386719-16.769531v79.921875c0 13.628906-66.902344 45-195 45zm0 0"/><path fill="rgba(6, 214, 160, 1)" d="m210 181h30v30h-30zm0 0"/><path fill="rgba(6, 214, 160, 1)" d="m210 301h30v30h-30zm0 0"/><path fill="rgba(6, 214, 160, 1)" d="m210 421h30v30h-30zm0 0"/></svg>