<svg id="Layer_1" enable-background="new 0 0 511.975 511.975" height="512" viewBox="0 0 511.975 511.975" width="512" xmlns="http://www.w3.org/2000/svg"><g><path d="m351.145 199.911c-21.354 10.926-39.62 25.976-53.872 43.709 10.027-23.801 24.137-47.17 42.271-69.959 4.616-5.8 8.317-12.269 11-19.227 1.49-3.865-.435-8.206-4.3-9.696-3.866-1.49-8.206.435-9.696 4.3-2.134 5.534-5.074 10.676-8.741 15.283-39.944 50.198-61.36 103.311-63.687 157.929h-16.265c-2.326-54.616-23.742-107.729-63.687-157.929-14.15-17.783-16.657-42.569-6.386-63.147 12.209-24.46 34.141-58.781 69.288-83.384 5.334-3.734 12.498-3.734 17.832 0 35.147 24.602 57.08 58.924 69.29 83.384 2.641 5.291 4.479 10.944 5.463 16.805.686 4.085 4.549 6.839 8.639 6.154 4.085-.687 6.84-4.554 6.154-8.639-1.23-7.326-3.53-14.398-6.836-21.02-12.985-26.014-36.382-62.567-74.108-88.972-10.478-7.337-24.558-7.335-35.035-.001-37.726 26.408-61.123 62.96-74.108 88.974-12.865 25.775-9.697 56.858 8.069 79.187 18.134 22.789 32.244 46.158 42.271 69.958-14.253-17.733-32.518-32.782-53.872-43.708-79.469-40.66-154.717 60.906-92.731 125.14.029.03.059.061.088.09 6.522 6.537 17.727 2.546 18.621-6.648 1.69-17.386 9.956-46.552 46.328-46.552 30.468 0 50.231 23.854 61.446 43.866 1.384 2.469 2.577 5.028 3.575 7.658-5.259 2.276-8.95 7.511-8.95 13.596v14.141c0 5.832 3.396 10.872 8.307 13.286-12.893 30.052-42.656 23.612-52.966 4.703-5.168-9.477-19.313-7.781-22.057 2.657-3.92 14.915-6.788 42.998 18.045 63.509 20.99 17.337 51.067 9.052 72.026-10.014-2.097 4.573-4.169 8.682-6.112 12.289-7.214 13.39-5.1 29.886 5.262 41.049l21.821 23.51c12.107 13.044 32.801 13.046 44.909 0l21.821-23.51c10.36-11.162 12.476-27.658 5.262-41.048-1.943-3.608-4.015-7.716-6.112-12.29 22.775 20.717 52.438 26.194 72.026 10.013 24.834-20.512 21.965-48.595 18.044-63.508-2.747-10.458-16.898-12.117-22.056-2.659-10.337 18.959-40.092 25.296-52.966-4.702 4.91-2.415 8.306-7.455 8.306-13.286v-14.141c0-6.085-3.691-11.32-8.949-13.596.998-2.63 2.191-5.19 3.575-7.659 8.443-15.066 23.048-34.461 44.677-41.297 3.95-1.248 6.14-5.462 4.892-9.411s-5.46-6.139-9.411-4.892c-29.383 9.286-52.431 40.404-59.177 62.043h-18.974c5.287-45.345 34.817-86.595 78.577-108.985 61.766-31.608 120.287 42.817 80.779 94.77-3.314-16.517-13.12-41.403-42.061-48.92-4.011-1.042-8.103 1.364-9.145 5.373-1.042 4.01 1.364 8.104 5.373 9.145 24.89 6.465 30.885 30.881 32.243 44.86.894 9.191 12.097 13.188 18.621 6.648.029-.029.059-.06.088-.09 61.995-64.24-13.271-165.795-92.729-125.139zm-218.01 57.03c-33.102 0-53.757 19.799-59.935 51.071-39.471-51.955 19.039-126.349 80.797-94.747 43.76 22.391 73.29 63.641 78.577 108.985h-18.974c-6.709-21.526-34.667-65.309-80.465-65.309zm16.953 166.852c-14.707-12.147-16.535-28.025-14.555-41.088 19.372 24.831 62.395 26.537 77.474-16.691h17.034c-12.568 51.663-57.939 75.96-79.953 57.779zm139.181 44.684-21.821 23.51c-6.2 6.679-16.729 6.671-22.921 0l-21.821-23.51c-5.993-6.456-7.219-15.992-3.051-23.729 9.122-16.932 20.893-44.16 25.948-78.734h20.769c5.054 34.571 16.826 61.801 25.948 78.733 4.167 7.737 2.942 17.274-3.051 23.73zm87.171-85.772c1.98 13.063.153 28.939-14.555 41.088-21.968 18.138-67.365-6.029-79.953-57.779h17.034c14.904 42.724 57.797 41.908 77.474 16.691zm-68.673-45.455v13.764c-12.587 0-91.926 0-103.561 0v-13.764z"/></g></svg>